<?xml version="1.0" standalone="no"?>
<!DOCTYPE svg PUBLIC "-//W3C//DTD SVG 20010904//EN"
 "http://www.w3.org/TR/2001/REC-SVG-20010904/DTD/svg10.dtd">
<svg version="1.0" xmlns="http://www.w3.org/2000/svg"
 width="500.000000pt" height="500.000000pt" viewBox="0 0 500.000000 500.000000"
 preserveAspectRatio="xMidYMid meet">
<metadata>
Created by potrace 1.11, written by Peter Selinger 2001-2013
</metadata>
<g transform="translate(0.000000,500.000000) scale(0.100000,-0.100000)"
fill="#000000" stroke="none">
<path d="M2215 4389 c-205 -39 -345 -76 -460 -124 -390 -162 -696 -423 -917
-784 -32 -51 -58 -95 -58 -96 0 -2 -18 -41 -39 -87 -51 -107 -87 -209 -116
-328 -38 -156 -45 -199 -54 -344 -37 -551 159 -1074 548 -1465 287 -289 661
-482 1059 -544 104 -16 474 -15 582 1 392 60 765 250 1048 533 270 269 435
571 523 954 39 170 50 472 24 648 -26 167 -82 375 -132 487 -109 240 -221 408
-387 579 -128 131 -214 201 -351 288 -223 140 -442 225 -695 270 -100 18 -498
26 -575 12z m409 -855 c257 -45 418 -161 514 -371 32 -71 58 -208 43 -226 -4
-4 -90 -6 -190 -5 l-183 3 -20 64 c-25 82 -98 160 -173 184 -94 31 -190 40
-277 27 -173 -27 -252 -99 -251 -227 0 -51 5 -68 28 -100 43 -60 74 -72 390
-148 358 -86 450 -117 551 -186 130 -88 194 -220 194 -395 -1 -289 -160 -495
-448 -579 -194 -57 -419 -60 -627 -9 -203 50 -345 153 -429 313 -58 111 -88
291 -48 291 9 0 93 1 186 1 181 0 185 -1 186 -51 1 -37 37 -110 73 -148 69
-72 167 -102 333 -102 154 0 235 20 312 77 65 49 92 156 58 237 -12 29 -71 86
-90 86 -3 0 -25 8 -49 18 -51 23 -92 35 -177 56 -488 114 -584 148 -685 245
-51 48 -89 111 -116 188 -30 87 -27 267 5 363 62 183 185 300 384 365 136 45
348 57 506 29z"/>
</g>
</svg>
